<svg width="20" height="20" viewBox="0 0 20 20" fill="none" xmlns="http://www.w3.org/2000/svg">
<path d="M7.26812 9H2.73241C2.27317 8.99957 1.83285 8.81568 1.50807 8.48867C1.18329 8.16167 1.00057 7.71825 1 7.25572V2.74428C1.00057 2.28175 1.18329 1.83833 1.50807 1.51133C1.83285 1.18432 2.27317 1.00043 2.73241 1H7.26812C7.72727 1.00057 8.16745 1.18453 8.49212 1.51152C8.81678 1.83851 8.99943 2.28184 9 2.74428V7.25572C8.99943 7.71816 8.81678 8.16149 8.49212 8.48848C8.16745 8.81547 7.72727 8.99943 7.26812 9ZM2.73241 2.35089C2.62882 2.35104 2.5295 2.39251 2.45619 2.46624C2.38289 2.53996 2.34158 2.63994 2.34129 2.74428V7.25572C2.34158 7.36006 2.38289 7.46003 2.45619 7.53376C2.5295 7.60749 2.62882 7.64896 2.73241 7.6491H7.26812C7.37167 7.64896 7.47093 7.60747 7.54415 7.53373C7.61737 7.45999 7.65857 7.36001 7.65871 7.25572V2.74428C7.65857 2.63999 7.61737 2.54001 7.54415 2.46627C7.47093 2.39253 7.37167 2.35104 7.26812 2.35089H2.73241Z" fill="currentColor"/>
<path d="M7.26897 19H2.73264C2.27329 18.9994 1.83292 18.8154 1.50811 18.4883C1.1833 18.1612 1.00057 17.7178 1 17.2552V12.7443C1.00057 12.2817 1.18331 11.8383 1.50814 11.5113C1.83297 11.1843 2.27334 11.0004 2.73264 11H7.26897C7.72799 11.0009 8.16795 11.1849 8.49243 11.5119C8.81691 11.8389 8.99943 12.282 9 12.7443V17.2552C8.99957 17.7175 8.81711 18.1608 8.49262 18.4879C8.16813 18.815 7.72808 18.9991 7.26897 19ZM2.73264 12.3509C2.62904 12.351 2.5297 12.3925 2.45639 12.4662C2.38308 12.54 2.34176 12.6399 2.34147 12.7443V17.2552C2.34161 17.3596 2.38287 17.4597 2.4562 17.5336C2.52953 17.6074 2.62894 17.649 2.73264 17.6491H7.26897C7.37257 17.6488 7.47185 17.6072 7.54506 17.5334C7.61828 17.4596 7.65946 17.3595 7.6596 17.2552V12.7443C7.65946 12.64 7.61826 12.54 7.54503 12.4663C7.4718 12.3925 7.37252 12.351 7.26897 12.3509H2.73264Z" fill="currentColor"/>
<path d="M17.2681 19H12.7324C12.2731 18.9994 11.8328 18.8154 11.508 18.4883C11.1833 18.1612 11.0006 17.7178 11 17.2552V12.7443C11.0006 12.2817 11.1833 11.8383 11.5081 11.5113C11.8329 11.1843 12.2732 11.0004 12.7324 11H17.2681C17.7273 11.0006 18.1675 11.1845 18.4921 11.5115C18.8168 11.8385 18.9994 12.2818 19 12.7443V17.2552C18.9996 17.7177 18.817 18.1612 18.4923 18.4883C18.1676 18.8154 17.7274 18.9994 17.2681 19ZM12.7324 12.3536C12.6288 12.3537 12.5295 12.3952 12.4562 12.4689C12.3829 12.5427 12.3416 12.6426 12.3413 12.747V17.2579C12.3414 17.3623 12.3827 17.4624 12.456 17.5363C12.5293 17.6101 12.6287 17.6517 12.7324 17.6518H17.2681C17.3717 17.6515 17.471 17.6099 17.5442 17.5361C17.6174 17.4623 17.6586 17.3622 17.6587 17.2579V12.7443C17.6586 12.64 17.6174 12.54 17.5442 12.4663C17.4709 12.3925 17.3717 12.351 17.2681 12.3509L12.7324 12.3536Z" fill="currentColor"/>
<path d="M14.9703 8.99999C14.1804 8.99412 13.41 8.75454 12.7561 8.31145C12.1023 7.86837 11.5942 7.24161 11.296 6.5102C10.9978 5.77879 10.9228 4.97547 11.0805 4.2015C11.2382 3.42754 11.6215 2.71758 12.1821 2.16114C12.7426 1.60469 13.4554 1.22666 14.2305 1.07472C15.0056 0.922767 15.8083 1.0037 16.5375 1.30731C17.2667 1.61091 17.8897 2.12361 18.3279 2.78075C18.7661 3.4379 19 4.21008 19 4.99994C18.9947 6.06434 18.5675 7.0832 17.8121 7.83306C17.0566 8.58292 16.0347 9.00258 14.9703 8.99999ZM14.9703 2.35126C14.4477 2.35712 13.9386 2.51744 13.5069 2.81202C13.0753 3.10661 12.7405 3.52229 12.5445 4.00676C12.3486 4.49123 12.3004 5.02284 12.4059 5.53466C12.5115 6.04647 12.766 6.51564 13.1376 6.8831C13.5092 7.25055 13.9812 7.49988 14.4941 7.59969C15.0071 7.6995 15.5381 7.64535 16.0203 7.44403C16.5026 7.24271 16.9145 6.90324 17.2043 6.46833C17.494 6.03343 17.6486 5.52253 17.6486 4.99994C17.6444 4.29339 17.3599 3.61739 16.8578 3.12032C16.3557 2.62324 15.6768 2.34568 14.9703 2.34856V2.35126Z" fill="currentColor"/>
</svg>
