<svg width="126" height="20" viewBox="0 0 126 20" fill="none" xmlns="http://www.w3.org/2000/svg">
<g clip-path="url(#clip0_949_2403)">
<path d="M0.670898 20V0H17.2723V4.14286H5.70624V15.8571H17.5774V20H0.670898ZM3.23435 11.8V7.85714H15.899V11.8H3.23435ZM19.5474 20V0H30.259C31.7645 0 33.0869 0.276191 34.2262 0.828573C35.3655 1.36191 36.2505 2.10476 36.8812 3.05714C37.5119 4.00953 37.8273 5.11429 37.8273 6.37143C37.8273 7.64762 37.4916 8.79048 36.8202 9.8C36.1692 10.7905 35.2638 11.581 34.1042 12.1714C32.9649 12.7429 31.6831 13.0286 30.259 13.0286H24.4912V20H19.5474ZM32.914 20L26.7495 10.9714L32.1205 10.2571L38.8954 20H32.914ZM24.4912 9.31429H29.7402C30.3099 9.31429 30.8083 9.2 31.2355 8.97143C31.6831 8.74286 32.029 8.42857 32.2731 8.02857C32.5376 7.62857 32.6699 7.16191 32.6699 6.62857C32.6699 6.11429 32.5274 5.66667 32.2426 5.28572C31.9781 4.88572 31.6017 4.58095 31.1135 4.37143C30.6455 4.16191 30.0861 4.05714 29.435 4.05714H24.4912V9.31429ZM40.242 20V0H50.9535C52.337 0 53.5679 0.285715 54.6461 0.857143C55.7448 1.42857 56.6196 2.20953 57.2706 3.2C57.9216 4.19048 58.2472 5.30476 58.2472 6.54286C58.2472 7.85714 57.9115 9.0381 57.2401 10.0857C56.5687 11.1143 55.6634 11.9333 54.5241 12.5429C53.4051 13.1333 52.1335 13.4286 50.7094 13.4286H45.4299V20H40.242ZM45.3384 9.17143H49.8854C50.4144 9.17143 50.9027 9.06667 51.3503 8.85714C51.8182 8.62857 52.1844 8.32381 52.4489 7.94286C52.7337 7.56191 52.8761 7.12381 52.8761 6.62857C52.8761 6.13333 52.7337 5.71429 52.4489 5.37143C52.1844 5.02857 51.8182 4.76191 51.3503 4.57143C50.9027 4.38095 50.4144 4.28572 49.8854 4.28572H45.3384V9.17143Z" fill="#333333"/>
</g>
<g clip-path="url(#clip1_949_2403)">
<path d="M66.242 20.0001C65.4849 20.0001 64.7859 19.9146 64.1453 19.7435C63.5162 19.5725 62.9396 19.3159 62.4154 18.9738C61.9029 18.6203 61.4369 18.187 61.0176 17.6738L62.2756 16.1856C62.9163 16.9725 63.5512 17.5313 64.1802 17.862C64.8092 18.1813 65.5373 18.3409 66.3644 18.3409C66.8653 18.3409 67.337 18.2725 67.7797 18.1356C68.2223 17.9988 68.5776 17.7992 68.8455 17.537C69.1134 17.2747 69.2474 16.9611 69.2474 16.5962C69.2474 16.3567 69.1833 16.1458 69.0552 15.9633C68.9387 15.7808 68.7698 15.6268 68.5485 15.5014C68.3388 15.3646 68.0884 15.2449 67.7971 15.1422C67.5176 15.0396 67.2205 14.9541 66.906 14.8856C66.5915 14.8058 66.2653 14.7431 65.9275 14.6975C65.2403 14.5834 64.6287 14.4295 64.0928 14.2356C63.557 14.0418 63.1027 13.7966 62.7299 13.5001C62.3688 13.2036 62.0951 12.8615 61.9087 12.4738C61.7223 12.0747 61.6291 11.6185 61.6291 11.1054C61.6291 10.6036 61.7456 10.1418 61.9786 9.71985C62.2232 9.29792 62.5552 8.93871 62.9746 8.64222C63.4056 8.33433 63.9065 8.10055 64.4773 7.94091C65.048 7.76985 65.6654 7.68433 66.3294 7.68433C67.04 7.68433 67.6865 7.76415 68.2689 7.9238C68.8513 8.08345 69.3697 8.32292 69.824 8.64222C70.2783 8.95012 70.6569 9.33213 70.9598 9.78827L69.6668 11.1054C69.3989 10.7177 69.0902 10.3927 68.7407 10.1304C68.3912 9.8681 68.0068 9.67424 67.5875 9.5488C67.1798 9.41196 66.7429 9.34354 66.277 9.34354C65.7528 9.34354 65.2868 9.41196 64.8791 9.5488C64.4831 9.68564 64.1686 9.8795 63.9356 10.1304C63.7026 10.3699 63.5861 10.6606 63.5861 11.0027C63.5861 11.265 63.6502 11.4988 63.7783 11.7041C63.9065 11.9093 64.0928 12.0918 64.3375 12.2514C64.5821 12.3997 64.8966 12.5308 65.281 12.6449C65.6654 12.7475 66.1023 12.8387 66.5915 12.9185C67.2555 13.0326 67.867 13.1808 68.4262 13.3633C68.997 13.5343 69.4862 13.751 69.8939 14.0133C70.3133 14.2642 70.6336 14.5721 70.8549 14.937C71.0879 15.3018 71.2044 15.7295 71.2044 16.2199C71.2044 16.9839 71.0005 17.651 70.5928 18.2212C70.1852 18.7913 69.6086 19.2304 68.863 19.5383C68.1291 19.8462 67.2555 20.0001 66.242 20.0001ZM75.8418 19.8291V14.0988L76.0515 15.1422L70.4601 7.85538H72.8713L77.0474 13.4488L76.6281 13.4146L80.5246 7.85538H82.7611L77.5367 15.0567L77.7289 13.962V19.8291H75.8418ZM87.005 20.0001C86.2479 20.0001 85.5489 19.9146 84.9082 19.7435C84.2792 19.5725 83.7026 19.3159 83.1784 18.9738C82.6659 18.6203 82.1999 18.187 81.7805 17.6738L83.0386 16.1856C83.6793 16.9725 84.3141 17.5313 84.9432 17.862C85.5722 18.1813 86.3003 18.3409 87.1273 18.3409C87.6282 18.3409 88.1 18.2725 88.5426 18.1356C88.9853 17.9988 89.3406 17.7992 89.6085 17.537C89.8765 17.2747 90.0104 16.9611 90.0104 16.5962C90.0104 16.3567 89.9464 16.1458 89.8182 15.9633C89.7017 15.7808 89.5328 15.6268 89.3114 15.5014C89.1018 15.3646 88.8513 15.2449 88.5601 15.1422C88.2805 15.0396 87.9835 14.9541 87.669 14.8856C87.3545 14.8058 87.0283 14.7431 86.6905 14.6975C86.0032 14.5834 85.3917 14.4295 84.8558 14.2356C84.32 14.0418 83.8657 13.7966 83.4929 13.5001C83.1318 13.2036 82.8581 12.8615 82.6717 12.4738C82.4853 12.0747 82.3921 11.6185 82.3921 11.1054C82.3921 10.6036 82.5086 10.1418 82.7416 9.71985C82.9862 9.29792 83.3182 8.93871 83.7375 8.64222C84.1686 8.33433 84.6695 8.10055 85.2402 7.94091C85.811 7.76985 86.4284 7.68433 87.0924 7.68433C87.803 7.68433 88.4495 7.76415 89.0319 7.9238C89.6144 8.08345 90.1327 8.32292 90.587 8.64222C91.0413 8.95012 91.4199 9.33213 91.7227 9.78827L90.4297 11.1054C90.1618 10.7177 89.8531 10.3927 89.5037 10.1304C89.1542 9.8681 88.7698 9.67424 88.3504 9.5488C87.9427 9.41196 87.5059 9.34354 87.0399 9.34354C86.5158 9.34354 86.0498 9.41196 85.6421 9.5488C85.2461 9.68564 84.9316 9.8795 84.6985 10.1304C84.4656 10.3699 84.3491 10.6606 84.3491 11.0027C84.3491 11.265 84.4132 11.4988 84.5413 11.7041C84.6695 11.9093 84.8558 12.0918 85.1004 12.2514C85.3451 12.3997 85.6596 12.5308 86.044 12.6449C86.4284 12.7475 86.8652 12.8387 87.3545 12.9185C88.0184 13.0326 88.63 13.1808 89.1891 13.3633C89.76 13.5343 90.2492 13.751 90.6569 14.0133C91.0762 14.2642 91.3966 14.5721 91.6179 14.937C91.8509 15.3018 91.9674 15.7295 91.9674 16.2199C91.9674 16.9839 91.7636 17.651 91.3558 18.2212C90.9481 18.7913 90.3715 19.2304 89.626 19.5383C88.8921 19.8462 88.0184 20.0001 87.005 20.0001ZM95.7948 19.8291V9.63433H91.8808V7.85538H101.701V9.63433H97.6819V19.8291H95.7948ZM102.445 19.8291V7.85538H111.129V9.63433H104.332V18.0501H111.129V19.8291H102.445ZM103.371 14.5777V12.7988H110.168V14.5777H103.371ZM112.724 19.8291V7.85538H114.576L119.469 14.8172L118.665 14.8001L123.61 7.85538H125.392V19.8291H123.505V14.8514C123.505 13.8593 123.528 12.9527 123.575 12.1317C123.633 11.2992 123.726 10.4668 123.854 9.63433L124.082 10.3014L119.609 16.3909H118.455L114.07 10.3356L114.262 9.63433C114.39 10.444 114.477 11.2593 114.524 12.0804C114.582 12.89 114.611 13.8137 114.611 14.8514V19.8291H112.724Z" fill="#333333"/>
</g>
<defs>
<clipPath id="clip0_949_2403">
<rect width="59" height="20" fill="white"/>
</clipPath>
<clipPath id="clip1_949_2403">
<rect width="65" height="13" fill="white" transform="translate(61 7)"/>
</clipPath>
</defs>
</svg>
