<svg width="35" height="35" viewBox="0 0 35 35" fill="none" xmlns="http://www.w3.org/2000/svg">
<path fill-rule="evenodd" clip-rule="evenodd" d="M17.5003 32.0834C25.5547 32.0834 32.0837 25.5545 32.0837 17.5001C32.0837 9.44571 25.5547 2.91675 17.5003 2.91675C9.44595 2.91675 2.91699 9.44571 2.91699 17.5001C2.91699 25.5545 9.44595 32.0834 17.5003 32.0834ZM15.3128 24.7786C15.3128 23.5142 16.2739 22.6042 17.4872 22.6042C18.7268 22.6042 19.6878 23.5142 19.6878 24.7786C19.6878 26.043 18.7268 26.9792 17.4872 26.9792C16.2739 26.9792 15.3128 26.043 15.3128 24.7786ZM16.2928 8.75008C16.1944 8.75018 16.0971 8.7702 16.0066 8.80892C15.9162 8.84764 15.8345 8.90427 15.7665 8.97539C15.6985 9.04652 15.6456 9.13066 15.611 9.22277C15.5764 9.31488 15.5608 9.41303 15.5651 9.51133L16.0114 19.7197C16.0196 19.9074 16.1001 20.0848 16.236 20.2146C16.3718 20.3445 16.5526 20.4169 16.7405 20.4167H18.2616C18.4495 20.4169 18.6303 20.3445 18.7662 20.2146C18.902 20.0848 18.9825 19.9074 18.9907 19.7197L19.4355 9.51133C19.4399 9.41291 19.4242 9.31463 19.3895 9.22243C19.3548 9.13023 19.3018 9.04601 19.2336 8.97486C19.1655 8.90372 19.0836 8.84712 18.993 8.80849C18.9024 8.76986 18.8049 8.74999 18.7064 8.75008H16.2928Z" fill="#E20000"/>
</svg>
