<svg width="160" height="24" viewBox="0 0 160 24" fill="none" xmlns="http://www.w3.org/2000/svg">
<rect width="16" height="16" rx="8" fill="currentColor"/>
<rect x="6" y="6" width="18" height="18" rx="9" fill="currentColor" fill-opacity="0.3"/>
<g clip-path="url(#clip0_876_58968)">
<path d="M34.6709 24V4H51.2723V8.14286H39.7062V19.8571H51.5774V24H34.6709ZM37.2343 15.8V11.8571H49.899V15.8H37.2343ZM53.5474 24V4H64.259C65.7645 4 67.0869 4.27619 68.2262 4.82857C69.3655 5.36191 70.2505 6.10476 70.8812 7.05714C71.5119 8.00953 71.8273 9.11429 71.8273 10.3714C71.8273 11.6476 71.4916 12.7905 70.8202 13.8C70.1692 14.7905 69.2638 15.581 68.1042 16.1714C66.9649 16.7429 65.6831 17.0286 64.259 17.0286H58.4912V24H53.5474ZM66.914 24L60.7495 14.9714L66.1205 14.2571L72.8954 24H66.914ZM58.4912 13.3143H63.7402C64.3099 13.3143 64.8083 13.2 65.2355 12.9714C65.6831 12.7429 66.029 12.4286 66.2731 12.0286C66.5376 11.6286 66.6699 11.1619 66.6699 10.6286C66.6699 10.1143 66.5274 9.66667 66.2426 9.28572C65.9781 8.88572 65.6017 8.58095 65.1135 8.37143C64.6455 8.16191 64.0861 8.05714 63.435 8.05714H58.4912V13.3143ZM74.242 24V4H84.9535C86.337 4 87.5679 4.28571 88.6461 4.85714C89.7448 5.42857 90.6196 6.20953 91.2706 7.2C91.9216 8.19048 92.2472 9.30476 92.2472 10.5429C92.2472 11.8571 91.9115 13.0381 91.2401 14.0857C90.5687 15.1143 89.6634 15.9333 88.5241 16.5429C87.4051 17.1333 86.1335 17.4286 84.7094 17.4286H79.4299V24H74.242ZM79.3384 13.1714H83.8854C84.4144 13.1714 84.9027 13.0667 85.3503 12.8571C85.8182 12.6286 86.1844 12.3238 86.4489 11.9429C86.7337 11.5619 86.8761 11.1238 86.8761 10.6286C86.8761 10.1333 86.7337 9.71429 86.4489 9.37143C86.1844 9.02857 85.8182 8.76191 85.3503 8.57143C84.9027 8.38095 84.4144 8.28572 83.8854 8.28572H79.3384V13.1714Z" fill="#333333"/>
</g>
<g clip-path="url(#clip1_876_58968)">
<path d="M100.242 23.9999C99.4849 23.9999 98.7859 23.9143 98.1453 23.7433C97.5162 23.5722 96.9396 23.3157 96.4154 22.9736C95.9029 22.62 95.4369 22.1867 95.0176 21.6736L96.2756 20.1854C96.9163 20.9722 97.5512 21.531 98.1802 21.8617C98.8092 22.181 99.5373 22.3407 100.364 22.3407C100.865 22.3407 101.337 22.2722 101.78 22.1354C102.222 21.9986 102.578 21.799 102.846 21.5367C103.113 21.2745 103.247 20.9608 103.247 20.5959C103.247 20.3565 103.183 20.1455 103.055 19.963C102.939 19.7806 102.77 19.6266 102.548 19.5012C102.339 19.3643 102.088 19.2446 101.797 19.142C101.518 19.0393 101.221 18.9538 100.906 18.8854C100.592 18.8056 100.265 18.7429 99.9275 18.6972C99.2403 18.5832 98.6287 18.4292 98.0928 18.2354C97.557 18.0415 97.1027 17.7964 96.7299 17.4999C96.3688 17.2034 96.0951 16.8613 95.9087 16.4736C95.7223 16.0744 95.6291 15.6183 95.6291 15.1051C95.6291 14.6034 95.7456 14.1415 95.9786 13.7196C96.2232 13.2977 96.5552 12.9385 96.9746 12.642C97.4056 12.3341 97.9065 12.1003 98.4773 11.9407C99.048 11.7696 99.6654 11.6841 100.329 11.6841C101.04 11.6841 101.686 11.7639 102.269 11.9236C102.851 12.0832 103.37 12.3227 103.824 12.642C104.278 12.9499 104.657 13.3319 104.96 13.788L103.667 15.1051C103.399 14.7174 103.09 14.3924 102.741 14.1301C102.391 13.8679 102.007 13.674 101.587 13.5486C101.18 13.4117 100.743 13.3433 100.277 13.3433C99.7528 13.3433 99.2868 13.4117 98.8791 13.5486C98.4831 13.6854 98.1686 13.8793 97.9356 14.1301C97.7026 14.3696 97.5861 14.6604 97.5861 15.0025C97.5861 15.2648 97.6502 15.4986 97.7783 15.7038C97.9065 15.9091 98.0928 16.0915 98.3375 16.2512C98.5821 16.3994 98.8966 16.5306 99.281 16.6446C99.6654 16.7472 100.102 16.8385 100.592 16.9183C101.255 17.0323 101.867 17.1806 102.426 17.363C102.997 17.5341 103.486 17.7508 103.894 18.013C104.313 18.2639 104.634 18.5718 104.855 18.9367C105.088 19.3016 105.204 19.7292 105.204 20.2196C105.204 20.9837 105.001 21.6508 104.593 22.2209C104.185 22.7911 103.609 23.2301 102.863 23.538C102.129 23.8459 101.255 23.9999 100.242 23.9999ZM109.842 23.8288V18.0986L110.051 19.142L104.46 11.8551H106.871L111.047 17.4486L110.628 17.4143L114.525 11.8551H116.761L111.537 19.0565L111.729 17.9617V23.8288H109.842ZM121.005 23.9999C120.248 23.9999 119.549 23.9143 118.908 23.7433C118.279 23.5722 117.703 23.3157 117.178 22.9736C116.666 22.62 116.2 22.1867 115.781 21.6736L117.039 20.1854C117.679 20.9722 118.314 21.531 118.943 21.8617C119.572 22.181 120.3 22.3407 121.127 22.3407C121.628 22.3407 122.1 22.2722 122.543 22.1354C122.985 21.9986 123.341 21.799 123.608 21.5367C123.876 21.2745 124.01 20.9608 124.01 20.5959C124.01 20.3565 123.946 20.1455 123.818 19.963C123.702 19.7806 123.533 19.6266 123.311 19.5012C123.102 19.3643 122.851 19.2446 122.56 19.142C122.281 19.0393 121.983 18.9538 121.669 18.8854C121.354 18.8056 121.028 18.7429 120.69 18.6972C120.003 18.5832 119.392 18.4292 118.856 18.2354C118.32 18.0415 117.866 17.7964 117.493 17.4999C117.132 17.2034 116.858 16.8613 116.672 16.4736C116.485 16.0744 116.392 15.6183 116.392 15.1051C116.392 14.6034 116.509 14.1415 116.742 13.7196C116.986 13.2977 117.318 12.9385 117.738 12.642C118.169 12.3341 118.669 12.1003 119.24 11.9407C119.811 11.7696 120.428 11.6841 121.092 11.6841C121.803 11.6841 122.449 11.7639 123.032 11.9236C123.614 12.0832 124.133 12.3227 124.587 12.642C125.041 12.9499 125.42 13.3319 125.723 13.788L124.43 15.1051C124.162 14.7174 123.853 14.3924 123.504 14.1301C123.154 13.8679 122.77 13.674 122.35 13.5486C121.943 13.4117 121.506 13.3433 121.04 13.3433C120.516 13.3433 120.05 13.4117 119.642 13.5486C119.246 13.6854 118.932 13.8793 118.699 14.1301C118.466 14.3696 118.349 14.6604 118.349 15.0025C118.349 15.2648 118.413 15.4986 118.541 15.7038C118.669 15.9091 118.856 16.0915 119.1 16.2512C119.345 16.3994 119.66 16.5306 120.044 16.6446C120.428 16.7472 120.865 16.8385 121.354 16.9183C122.018 17.0323 122.63 17.1806 123.189 17.363C123.76 17.5341 124.249 17.7508 124.657 18.013C125.076 18.2639 125.397 18.5718 125.618 18.9367C125.851 19.3016 125.967 19.7292 125.967 20.2196C125.967 20.9837 125.764 21.6508 125.356 22.2209C124.948 22.7911 124.372 23.2301 123.626 23.538C122.892 23.8459 122.018 23.9999 121.005 23.9999ZM129.795 23.8288V13.6341H125.881V11.8551H135.701V13.6341H131.682V23.8288H129.795ZM136.445 23.8288V11.8551H145.129V13.6341H138.332V22.0499H145.129V23.8288H136.445ZM137.371 18.5775V16.7986H144.168V18.5775H137.371ZM146.724 23.8288V11.8551H148.576L153.469 18.817L152.665 18.7999L157.61 11.8551H159.392V23.8288H157.505V18.8512C157.505 17.8591 157.528 16.9525 157.575 16.1315C157.633 15.299 157.726 14.4665 157.854 13.6341L158.082 14.3012L153.609 20.3907H152.455L148.07 14.3354L148.262 13.6341C148.39 14.4437 148.477 15.2591 148.524 16.0801C148.582 16.8898 148.611 17.8135 148.611 18.8512V23.8288H146.724Z" fill="#333333"/>
</g>
<defs>
<clipPath id="clip0_876_58968">
<rect width="59" height="20" fill="white" transform="translate(34 4)"/>
</clipPath>
<clipPath id="clip1_876_58968">
<rect width="65" height="13" fill="white" transform="translate(95 11)"/>
</clipPath>
</defs>
</svg>
