<svg width="20" height="20" viewBox="0 0 20 20" fill="none" xmlns="http://www.w3.org/2000/svg">
<path d="M2.95654 3.25C2.26729 3.25 1.70654 3.81075 1.70654 4.5C1.70654 5.18925 2.26729 5.75 2.95654 5.75C3.6458 5.75 4.20654 5.18925 4.20654 4.5C4.20654 3.81075 3.64582 3.25 2.95654 3.25Z" fill="currentColor"/>
<path d="M18.2935 3.66602H5.20654V5.33252H11.75H18.2935V3.66602Z" fill="currentColor"/>
<path d="M2.95654 8.75C2.26729 8.75 1.70654 9.31075 1.70654 10C1.70654 10.6893 2.26729 11.25 2.95654 11.25C3.6458 11.25 4.20654 10.6893 4.20654 10C4.20654 9.31075 3.64582 8.75 2.95654 8.75Z" fill="currentColor"/>
<path d="M18.2935 9.16602H5.20654V10.8325H11.75H18.2935V9.16602Z" fill="currentColor"/>
<path d="M2.95654 14.25C2.26729 14.25 1.70654 14.8107 1.70654 15.5C1.70654 16.1893 2.26729 16.75 2.95654 16.75C3.6458 16.75 4.20654 16.1893 4.20654 15.5C4.20654 14.8107 3.64582 14.25 2.95654 14.25Z" fill="currentColor"/>
<path d="M18.2935 14.666H5.20654V16.3325H11.75H18.2935V14.666Z" fill="currentColor"/>
</svg>
